<svg  viewBox="0 0 20 20" fill="black" xmlns="http://www.w3.org/2000/svg">
                    <path d="M9.99999 18.3334C14.5175 18.3334 18.3333 14.5176 18.3333 10.0001C18.3333 5.48258 14.5175 1.66675 9.99999 1.66675C5.48249 1.66675 1.66666 5.48258 1.66666 10.0001C1.66666 14.5176 5.48249 18.3334 9.99999 18.3334ZM9.99999 3.33341C13.6142 3.33341 16.6667 6.38591 16.6667 10.0001C16.6667 13.6142 13.6142 16.6667 9.99999 16.6667C6.38582 16.6667 3.33332 13.6142 3.33332 10.0001C3.33332 6.38591 6.38582 3.33341 9.99999 3.33341Z" fill="black"/>
                    <path d="M10 14.1666C10.7508 14.1666 12.1508 14.0266 13.0892 13.0899L11.9108 11.9099C11.5417 12.2791 10.8267 12.4999 10 12.4999C8.64501 12.4999 7.50001 11.3549 7.50001 9.99992C7.50001 8.64492 8.64501 7.49992 10 7.49992C10.8275 7.49992 11.5425 7.72075 11.9108 8.08909L13.0892 6.91075C12.1517 5.97325 10.7508 5.83325 10 5.83325C7.70251 5.83325 5.83334 7.70242 5.83334 9.99992C5.83334 12.2974 7.70251 14.1666 10 14.1666Z" fill="black"/>
                    </svg>